<svg width="24" height="24" viewBox="0 0 24 24" fill="none" xmlns="http://www.w3.org/2000/svg">
<path d="M4.01978 12.3703C4.01978 11.818 4.46749 11.3703 5.01978 11.3703L16.6057 11.3703L12.3127 7.07729C11.9222 6.68677 11.9222 6.05375 12.3127 5.66323C12.7033 5.2727 13.3363 5.2727 13.7268 5.66323L19.7268 11.6632C19.8181 11.7545 19.891 11.8636 19.9417 11.9845C19.947 11.9974 19.9515 12.0105 19.9563 12.0236C19.9629 12.0414 19.9702 12.059 19.9758 12.0773C19.9788 12.0869 19.98 12.0969 19.9827 12.1066C20.0056 12.1907 20.0198 12.2789 20.0198 12.3703L20.0149 12.4718C20.0127 12.4936 20.0077 12.5149 20.0042 12.5363C20.0023 12.5473 20.0015 12.5585 19.9993 12.5695C19.9971 12.5803 19.994 12.591 19.9915 12.6017C19.9716 12.685 19.9419 12.7655 19.9016 12.841L19.8987 12.8468L19.8518 12.9249C19.8155 12.9793 19.7737 13.0304 19.7268 13.0773L13.7268 19.0773C13.3363 19.4678 12.7033 19.4677 12.3127 19.0773C11.9222 18.6868 11.9222 18.0538 12.3127 17.6632L16.6057 13.3703L5.01978 13.3703C4.46756 13.3703 4.01989 12.9224 4.01978 12.3703Z" fill="#191A1B"/>
</svg>
