<svg xmlns="http://www.w3.org/2000/svg" xmlns:xlink="http://www.w3.org/1999/xlink" width="1192" height="72" viewBox="0 0 1192 72">
<rect x="0" y="0" width="1192" height="72" fill="white"/>
<g transform="translate(0,40)">
<g transform="translate(0,0)">
<text font-size="18" font-family="Pretendard, sans-serif"
  font-weight="700" font-style="normal" fill="rgba(25,26,27,1.0000)"
  text-rendering="geometricPrecision"><tspan x="0" y="20.08799934387207">구</tspan><tspan x="15.556640625" y="20.08799934387207">독</tspan><tspan x="35.26171875" y="20.08799934387207">A</tspan><tspan x="48.181640625" y="20.08799934387207">P</tspan><tspan x="59.4140625" y="20.08799934387207">I</tspan></text>
</g>
<g transform="translate(73,0)">
<g transform="translate(0,0)">
<text font-size="18" font-family="Pretendard, sans-serif"
  font-weight="700" font-style="normal" fill="rgba(25,26,27,1.0000)"
  text-rendering="geometricPrecision"><tspan x="0" y="20.08799934387207">2</tspan></text>
</g>
<g transform="translate(13,1.5)">
<text font-size="16" font-family="Pretendard, sans-serif"
  font-weight="500" font-style="normal" fill="rgba(85,88,93,1.0000)"
  text-rendering="geometricPrecision"><tspan x="0" y="17.856000900268555">개</tspan></text>
</g>
</g>
</g>
<g transform="translate(1085,40)">
<g transform="translate(0,0)">
<clipPath id="frame-clip-1"><rect width="32" height="32" rx="0" ry="0"/></clipPath>
<rect x="0" y="0" width="32" height="32" rx="0" ry="0" fill="rgba(19,20,21,0.0000)"/>
<g clip-path="url(#frame-clip-1)"><g transform="translate(6,6)">
<g transform="scale(0.8333333333333334,0.8333333333333334)">
<g transform="matrix(1,0,0,1,3,3)">
<path d="M9,0C6.17,0 3.65,1.31 2,3.34L2,2C2,1.45 1.55,1 1,1C0.45,1 0,1.45 0,2L0,6C0,6.55 0.45,7 1,7L5,7C5.55,7 6,6.55 6,6C6,5.45 5.55,5 5,5L3.25,5C4.52,3.19 6.62,2 9,2C12.87,2 16,5.13 16,9C16,12.87 12.87,16 9,16C5.74,16 3,13.77 2.22,10.75C2.08,10.22 1.53,9.89 1,10.03C0.47,10.17 0.14,10.72 0.28,11.25C1.28,15.13 4.8,18 9,18C13.97,18 18,13.97 18,9C18,4.03 13.97,0 9,0Z" fill="rgba(25,26,27,1.0000)"/>
<path d="M8,5C8,4.45 8.45,4 9,4C9.55,4 10,4.45 10,5L10,8.59L12.21,10.79C12.6,11.18 12.6,11.82 12.21,12.21C11.82,12.6 11.18,12.6 10.79,12.21L8,9.41L8,5Z" fill="rgba(25,26,27,1.0000)"/>
</g>
</g>
</g></g>
<rect x="0.5" y="0.5" width="31" height="31" rx="0" ry="0" fill="none" stroke="rgba(139,143,151,1.0000)" stroke-width="1"/>
</g>
<g transform="translate(38,0)">
<rect x="0" y="0" width="32" height="32" rx="0" ry="0" fill="rgba(19,20,21,0.0000)"/>
<g transform="translate(6,6)">
<g transform="scale(0.8333333333333334,0.8333333333333334)">
<g transform="matrix(1,0,0,1,2,3)">
<path d="M10,18C9.85,18 9.69,17.96 9.55,17.89C9.16,17.69 0,13.03 0,6C0,2.69 2.69,0 6,0C7.98,0 9.24,1.02 10,1.99C10.76,1.02 12.02,0 14,0C17.31,0 20,2.69 20,6C20,13.04 10.84,17.7 10.45,17.89C10.31,17.96 10.16,18 10,18ZM6,2C3.79,2 2,3.79 2,6C2,11.02 8.25,14.88 10,15.86C11.75,14.88 18,11.01 18,6C18,3.79 16.21,2 14,2C11.79,2 10.98,4.23 10.95,4.32C10.81,4.72 10.43,5 10,5C9.57,5 9.19,4.73 9.06,4.32C9.03,4.23 8.23,2 6.01,2L6,2Z" fill="rgba(26,26,26,1.0000)"/>
</g>
</g>
</g>
<rect x="0.5" y="0.5" width="31" height="31" rx="0" ry="0" fill="none" stroke="rgba(139,143,151,1.0000)" stroke-width="1"/>
</g>
<g transform="translate(38,0)">
<rect x="0" y="0" width="129" height="32" rx="0" ry="0" fill="rgba(19,20,21,0.0000)"/>
<g transform="translate(12,6.5)">
<text font-size="13" font-family="Pretendard, sans-serif"
  font-weight="500" font-style="normal" fill="rgba(25,26,27,1.0000)"
  text-rendering="geometricPrecision"><tspan x="52.50" y="14.26" text-anchor="middle">레이블</tspan></text>
</g>
<rect x="0.5" y="0.5" width="128" height="31" rx="0" ry="0" fill="none" stroke="rgba(139,143,151,1.0000)" stroke-width="1"/>
</g>
<g transform="translate(38,0)">
<rect x="0" y="0" width="69" height="32" rx="0" ry="0" fill="rgba(25,26,27,1.0000)"/>
<g transform="translate(12,6.5)">
<text font-size="13" font-family="Pretendard, sans-serif"
  font-weight="500" font-style="normal" fill="rgba(255,255,255,1.0000)"
  text-rendering="geometricPrecision"><tspan x="22.50" y="14.26" text-anchor="middle">레이블</tspan></text>
</g>
</g>
</g>
</svg>