<svg width="24" height="24" viewBox="0 0 24 24" fill="none" xmlns="http://www.w3.org/2000/svg">
<path d="M12.5 3.2666C12.5 2.71432 12.9477 2.2666 13.5 2.2666C14.0523 2.2666 14.5 2.71432 14.5 3.2666V6.5332H17.7666C18.3189 6.5332 18.7666 6.98095 18.7666 7.5332C18.7666 8.08549 18.3189 8.5332 17.7666 8.5332H13.5C12.9477 8.5332 12.5 8.08549 12.5 7.5332V3.2666Z" fill="#191A1B"/>
<path d="M3.5 18.543V4.45703C3.50006 3.03949 4.70688 2 6.05566 2H13.9668C14.6242 2.00001 15.2665 2.24438 15.75 2.69727L18.7275 5.48633C19.2132 5.94128 19.4999 6.57268 19.5 7.24609V14.5H17.5V7.24609C17.4999 7.14681 17.458 7.03773 17.3604 6.94629L14.3828 4.15625C14.2829 4.0628 14.1343 4.00001 13.9668 4H6.05566C5.68635 4 5.50007 4.26513 5.5 4.45703V18.543C5.50007 18.7349 5.68635 19 6.05566 19H13.0557V21H6.05566C4.70688 21 3.50006 19.9605 3.5 18.543Z" fill="#191A1B"/>
<path d="M18.5 17C18.5 15.3431 17.1569 14 15.5 14C15.0372 14 14.6004 14.1078 14.209 14.2949L18.2041 18.29C18.3911 17.8988 18.5 17.4626 18.5 17ZM12.5 17C12.5 18.6569 13.8431 20 15.5 20C15.9626 20 16.3988 19.8911 16.79 19.7041L12.7949 15.709C12.6078 16.1004 12.5 16.5372 12.5 17ZM20.5 17C20.5 19.7614 18.2614 22 15.5 22C12.7386 22 10.5 19.7614 10.5 17C10.5 14.2386 12.7386 12 15.5 12C18.2614 12 20.5 14.2386 20.5 17Z" fill="#191A1B"/>
</svg>
