<svg width="16" height="16" viewBox="0 0 16 16" fill="none" xmlns="http://www.w3.org/2000/svg">
<path fill-rule="evenodd" clip-rule="evenodd" d="M7.31315 1.33301C10.6138 1.33301 13.2923 4.01148 13.2923 7.31217C13.2923 8.72244 12.8019 10.018 11.9844 11.0407L13.8053 12.8617C14.0657 13.122 14.0657 13.544 13.8053 13.8044C13.545 14.0647 13.123 14.0647 12.8626 13.8044L11.0417 11.9834C10.019 12.8009 8.72342 13.2913 7.31315 13.2913C4.01246 13.2913 1.33398 10.6129 1.33398 7.31217C1.33398 4.01148 4.01246 1.33301 7.31315 1.33301ZM7.31315 2.66634C4.74884 2.66634 2.66732 4.74786 2.66732 7.31217C2.66732 9.87648 4.74884 11.958 7.31315 11.958C9.87746 11.958 11.959 9.87648 11.959 7.31217C11.959 4.74786 9.87746 2.66634 7.31315 2.66634Z" fill="#ADB1B9"/>
</svg>
