<svg width="24" height="24" viewBox="0 0 24 24" fill="none" xmlns="http://www.w3.org/2000/svg">
<path fill-rule="evenodd" clip-rule="evenodd" d="M11.5846 2C15.6231 2.00038 18.9305 5.12859 19.2408 9.0918C19.2427 9.11642 19.2446 9.14132 19.2447 9.16602L19.2633 14.2373L20.027 16.0645C20.5388 17.2868 19.701 18.6183 18.4273 18.748C18.3645 18.7605 18.2997 18.7695 18.234 18.7695H16.276C15.5615 20.6567 13.74 22.0106 11.5943 22.0107C9.4486 22.0106 7.62708 20.6567 6.91269 18.7695H4.95468C3.56844 18.7695 2.61242 17.3598 3.15195 16.0732L3.91562 14.2275L3.93418 9.16602L3.93711 9.09473C4.23605 5.13963 7.54509 2 11.5846 2ZM9.16757 18.7705C9.7145 19.5208 10.5985 20.0106 11.5943 20.0107C12.5902 20.0106 13.4742 19.5208 14.0211 18.7705H9.16757ZM11.5846 4C8.61377 4 6.16801 6.30538 5.9332 9.2168L5.91465 14.4336C5.91415 14.5635 5.88811 14.6925 5.83847 14.8125L5.0289 16.7695H18.1002C18.1169 16.7675 18.1341 16.7659 18.151 16.7646L17.3414 14.8252C17.291 14.7043 17.2648 14.5743 17.2643 14.4434L17.2447 9.2207C17.0019 6.2975 14.5561 4.00038 11.5846 4Z" fill="#191A1B"/>
</svg>
