<svg width="24" height="24" viewBox="0 0 24 24" fill="none" xmlns="http://www.w3.org/2000/svg">
<path d="M12.0195 15.6006C12.5695 15.6006 13.0195 16.0506 13.0195 16.6006C13.0193 17.1504 12.5694 17.6006 12.0195 17.6006C11.4697 17.6006 11.0198 17.1504 11.0195 16.6006C11.0195 16.0506 11.4595 15.6006 12.0195 15.6006Z" fill="#191A1B"/>
<path d="M12.0098 8.2002C12.5621 8.2002 13.0098 8.64791 13.0098 9.2002V13.2002C13.0097 13.7524 12.562 14.2002 12.0098 14.2002C11.4577 14.2001 11.0099 13.7523 11.0098 13.2002V9.2002C11.0098 8.64799 11.4576 8.20032 12.0098 8.2002Z" fill="#191A1B"/>
<path fill-rule="evenodd" clip-rule="evenodd" d="M12 3C12.4761 3 12.9692 3.11828 13.4053 3.37305L13.4062 3.37207C13.408 3.37309 13.4093 3.37495 13.4111 3.37598C13.4138 3.37756 13.4172 3.37829 13.4199 3.37988L13.4189 3.38086C13.8048 3.60427 14.1124 3.9074 14.3428 4.25879L14.4385 4.41406L21.6279 17.0039C21.6466 17.0367 21.6631 17.0706 21.6777 17.1045C21.8883 17.5071 21.9902 17.9485 21.9902 18.3896C21.9902 18.8765 21.868 19.365 21.6104 19.7998C21.3648 20.2142 21.014 20.565 20.5996 20.8105C20.165 21.068 19.677 21.1904 19.1904 21.1904H4.7998V21.1885C4.30636 21.1983 3.82663 21.0694 3.4043 20.8281C3.39983 20.8256 3.39505 20.8229 3.39062 20.8203C2.97623 20.5747 2.62545 20.224 2.37988 19.8096C2.37517 19.8016 2.3707 19.7932 2.36621 19.7852C2.14106 19.3798 2.00007 18.8944 2 18.4004C2 17.9265 2.12086 17.4273 2.37988 16.9902L9.56152 4.41406L9.65918 4.25488C9.89854 3.89359 10.216 3.59569 10.5801 3.37988C10.5845 3.37724 10.5892 3.37464 10.5938 3.37207C11.0285 3.12365 11.5102 3 12 3ZM12 5C11.8524 5 11.7163 5.03538 11.5928 5.10449C11.4722 5.17755 11.369 5.28104 11.2979 5.40527L11.2988 5.40625L4.1084 17.9961C4.1058 18.0007 4.10326 18.0052 4.10059 18.0098C4.03961 18.1127 4 18.2543 4 18.4004C4.00008 18.5216 4.0369 18.669 4.10645 18.7998C4.17929 18.919 4.28389 19.0224 4.40332 19.0947C4.52937 19.1652 4.65456 19.194 4.76758 19.1904H19.1904C19.3433 19.1904 19.475 19.1521 19.5801 19.0898C19.7057 19.0154 19.8152 18.9059 19.8896 18.7803C19.952 18.675 19.9902 18.5428 19.9902 18.3896C19.9902 18.2367 19.9519 18.1051 19.8896 18C19.8727 17.9713 19.8576 17.9418 19.8438 17.9121L12.7012 5.40625C12.622 5.2681 12.5255 5.17212 12.4141 5.1084C12.4096 5.10584 12.4048 5.10322 12.4004 5.10059C12.2998 5.04096 12.1589 5 12 5Z" fill="#191A1B"/>
</svg>
