<svg preserveAspectRatio="none" width="100%" height="100%" overflow="visible" style="display: block;" viewBox="0 0 19.9902 18.1904" fill="none" xmlns="http://www.w3.org/2000/svg">
<g id="Vector">
<path d="M10.0195 12.6006C10.5695 12.6006 11.0195 13.0506 11.0195 13.6006C11.0193 14.1504 10.5694 14.6006 10.0195 14.6006C9.46969 14.6006 9.0198 14.1504 9.01953 13.6006C9.01953 13.0506 9.45953 12.6006 10.0195 12.6006Z" fill="var(--fill-0, #191A1B)"/>
<path d="M10.0098 5.2002C10.5621 5.2002 11.0098 5.64791 11.0098 6.2002V10.2002C11.0097 10.7524 10.562 11.2002 10.0098 11.2002C9.45765 11.2001 9.00987 10.7523 9.00977 10.2002V6.2002C9.00977 5.64799 9.45759 5.20032 10.0098 5.2002Z" fill="var(--fill-0, #191A1B)"/>
<path fill-rule="evenodd" clip-rule="evenodd" d="M10 0C10.4761 6.24341e-07 10.9692 0.118278 11.4053 0.373047L11.4062 0.37207C11.408 0.373093 11.4093 0.374951 11.4111 0.375977C11.4138 0.377558 11.4172 0.378291 11.4199 0.379883L11.4189 0.380859C11.8048 0.604268 12.1124 0.907403 12.3428 1.25879L12.4385 1.41406L19.6279 14.0039C19.6466 14.0367 19.6631 14.0706 19.6777 14.1045C19.8883 14.5071 19.9902 14.9485 19.9902 15.3896C19.9902 15.8765 19.868 16.365 19.6104 16.7998C19.3648 17.2142 19.014 17.565 18.5996 17.8105C18.165 18.068 17.677 18.1904 17.1904 18.1904H2.7998V18.1885C2.30636 18.1983 1.82663 18.0694 1.4043 17.8281C1.39983 17.8256 1.39505 17.8229 1.39062 17.8203C0.976231 17.5747 0.625447 17.224 0.379883 16.8096C0.375168 16.8016 0.370703 16.7932 0.366211 16.7852C0.141055 16.3798 7.40913e-05 15.8944 0 15.4004C0 14.9265 0.120857 14.4273 0.379883 13.9902L7.56152 1.41406L7.65918 1.25488C7.89854 0.893593 8.21596 0.595687 8.58008 0.379883C8.58454 0.377239 8.58925 0.374644 8.59375 0.37207C9.02849 0.12365 9.51021 0 10 0ZM10 2C9.85244 2 9.71628 2.03538 9.59277 2.10449C9.4722 2.17755 9.36895 2.28104 9.29785 2.40527L9.29883 2.40625L2.1084 14.9961C2.1058 15.0007 2.10326 15.0053 2.10059 15.0098C2.03961 15.1127 2 15.2543 2 15.4004C2.00008 15.5216 2.0369 15.669 2.10645 15.7998C2.17929 15.919 2.28389 16.0224 2.40332 16.0947C2.52937 16.1652 2.65456 16.194 2.76758 16.1904H17.1904C17.3433 16.1904 17.475 16.1521 17.5801 16.0898C17.7057 16.0154 17.8152 15.9059 17.8896 15.7803C17.952 15.675 17.9902 15.5428 17.9902 15.3896C17.9902 15.2367 17.9519 15.1051 17.8896 15C17.8727 14.9713 17.8576 14.9418 17.8438 14.9121L10.7012 2.40625C10.622 2.2681 10.5255 2.17212 10.4141 2.1084C10.4096 2.10584 10.4048 2.10322 10.4004 2.10059C10.2998 2.04096 10.1589 2 10 2Z" fill="var(--fill-0, #191A1B)"/>
</g>
</svg>
