<svg width="19" height="19" viewBox="0 0 19 19" fill="none" xmlns="http://www.w3.org/2000/svg">
<path fill-rule="evenodd" clip-rule="evenodd" d="M8.96875 0C13.9198 0 17.9375 4.01772 17.9375 8.96875C17.9375 11.0842 17.2019 13.0275 15.9756 14.5615L18.707 17.293C19.0976 17.6835 19.0976 18.3165 18.707 18.707C18.3165 19.0976 17.6835 19.0976 17.293 18.707L14.5615 15.9756C13.0275 17.2019 11.0842 17.9375 8.96875 17.9375C4.01772 17.9375 0 13.9198 0 8.96875C0 4.01772 4.01772 0 8.96875 0ZM8.96875 2C5.12228 2 2 5.12228 2 8.96875C2 12.8152 5.12228 15.9375 8.96875 15.9375C12.8152 15.9375 15.9375 12.8152 15.9375 8.96875C15.9375 5.12228 12.8152 2 8.96875 2Z" fill="#191A1B"/>
</svg>
