<svg width="16" height="16" viewBox="0 0 16 16" fill="none" xmlns="http://www.w3.org/2000/svg">
<path fill-rule="evenodd" clip-rule="evenodd" d="M7.31266 1.33301C10.6134 1.33301 13.2918 4.01148 13.2918 7.31217C13.2918 8.72244 12.8014 10.018 11.9839 11.0407L13.8048 12.8617C14.0652 13.122 14.0652 13.544 13.8048 13.8044C13.5445 14.0647 13.1225 14.0647 12.8621 13.8044L11.0412 11.9834C10.0185 12.8009 8.72293 13.2913 7.31266 13.2913C4.01197 13.2913 1.3335 10.6129 1.3335 7.31217C1.3335 4.01148 4.01197 1.33301 7.31266 1.33301ZM7.31266 2.66634C4.74835 2.66634 2.66683 4.74786 2.66683 7.31217C2.66683 9.87648 4.74835 11.958 7.31266 11.958C9.87697 11.958 11.9585 9.87648 11.9585 7.31217C11.9585 4.74786 9.87697 2.66634 7.31266 2.66634Z" fill="#ADB1B9"/>
</svg>
