<svg preserveAspectRatio="none" width="100%" height="100%" overflow="visible" style="display: block;" viewBox="0 0 12 12.6602" fill="none" xmlns="http://www.w3.org/2000/svg">
<path id="Vector" d="M10.6667 5.75978C10.6666 5.56262 10.5794 5.37582 10.4297 5.24936L6 1.53647L1.56966 5.24871C1.4199 5.37518 1.3334 5.56263 1.33333 5.75978V10.6602C1.33342 11.0252 1.63491 11.3268 2 11.3268H10C10.3651 11.3268 10.6666 11.0252 10.6667 10.6602V5.75978ZM12 10.6602C11.9999 11.7616 11.1015 12.6602 10 12.6602H2C0.898531 12.6602 8.85004e-05 11.7616 0 10.6602V5.75978C6.5724e-05 5.17045 0.259552 4.61058 0.709635 4.23048L0.711589 4.22918L5.57161 0.155611L5.61979 0.119152C5.86446 -0.0509946 6.19621 -0.0389827 6.42839 0.155611L11.2884 4.22918L11.2904 4.23048C11.7405 4.61059 11.9999 5.17046 12 5.75978V10.6602Z" fill="var(--fill-0, #6F737B)"/>
</svg>
