<svg width="20" height="20" viewBox="0 0 20 20" fill="none" xmlns="http://www.w3.org/2000/svg">
<path d="M10 0C15.52 0 20 4.48 20 10C20 15.52 15.52 20 10 20C4.48 20 0 15.52 0 10C0 4.48 4.48 0 10 0ZM13.5371 6.46289C13.1466 6.07239 12.5136 6.07244 12.123 6.46289L10 8.58594L7.87695 6.46289C7.48643 6.07237 6.85342 6.07237 6.46289 6.46289C6.07237 6.85342 6.07237 7.48643 6.46289 7.87695L8.58594 10L6.46289 12.123C6.07244 12.5136 6.07239 13.1466 6.46289 13.5371C6.85341 13.9273 7.48651 13.9275 7.87695 13.5371L10 11.4141L12.123 13.5371C12.5136 13.9273 13.1467 13.9275 13.5371 13.5371C13.9275 13.1467 13.9273 12.5136 13.5371 12.123L11.4141 10L13.5371 7.87695C13.9275 7.48651 13.9273 6.85341 13.5371 6.46289Z" fill="#6F737B"/>
</svg>
