<svg width="24" height="24" viewBox="0 0 24 24" fill="none" xmlns="http://www.w3.org/2000/svg">
<path d="M3 3L21 21" stroke="#6F737C" stroke-width="1.8" stroke-linecap="round"/>
<path d="M10.55 5.16C11.02 5.05 11.5 5 12 5C18.05 5 21.5 12 21.5 12C20.65 13.72 19.44 15.25 17.98 16.42" stroke="#6F737C" stroke-width="1.8" stroke-linecap="round" stroke-linejoin="round"/>
<path d="M14.12 14.12C13.58 14.66 12.83 15 12 15C10.34 15 9 13.66 9 12C9 11.17 9.34 10.42 9.88 9.88" stroke="#6F737C" stroke-width="1.8" stroke-linecap="round" stroke-linejoin="round"/>
<path d="M6.03 7.58C4.56 8.75 3.35 10.28 2.5 12C2.5 12 5.95 19 12 19C12.5 19 12.98 18.95 13.45 18.84" stroke="#6F737C" stroke-width="1.8" stroke-linecap="round" stroke-linejoin="round"/>
</svg>
