<svg width="24" height="24" viewBox="0 0 24 24" fill="none" xmlns="http://www.w3.org/2000/svg">
<path d="M4.5 4.5L19.5 19.5" stroke="#55585D" stroke-width="1.8" stroke-linecap="round"/>
<path d="M9.45 6.98C10.25 6.83 11.1 6.75 12 6.75C16 6.75 19.1 8.6 21 12C20.42 13.04 19.72 13.93 18.92 14.67M15.05 16.72C14.11 17.07 13.09 17.25 12 17.25C8 17.25 4.9 15.4 3 12C4.02 10.17 5.39 8.79 7.1 7.88" stroke="#55585D" stroke-width="1.8" stroke-linecap="round" stroke-linejoin="round"/>
<path d="M10.1 10.1C9.58 10.6 9.25 11.28 9.25 12C9.25 13.52 10.48 14.75 12 14.75C12.72 14.75 13.4 14.42 13.9 13.9" stroke="#55585D" stroke-width="1.8" stroke-linecap="round"/>
</svg>
