<svg width="16" height="16" viewBox="0 0 16 16" fill="none" xmlns="http://www.w3.org/2000/svg">
<path d="M1.33337 12.6668V3.3335C1.33337 2.22893 2.2288 1.3335 3.33337 1.3335H10.3334C10.7016 1.3335 11 1.63197 11 2.00016C11 2.36835 10.7016 2.66683 10.3334 2.66683H3.33337C2.96518 2.66683 2.66671 2.96531 2.66671 3.3335V12.6668C2.66671 13.035 2.96518 13.3335 3.33337 13.3335H10.3334C10.7016 13.3335 11 13.632 11 14.0002C11 14.3684 10.7016 14.6668 10.3334 14.6668H3.33337C2.2288 14.6668 1.33337 13.7714 1.33337 12.6668ZM7.52869 5.19548C7.78904 4.93513 8.21105 4.93513 8.47139 5.19548C8.73174 5.45582 8.73174 5.87783 8.47139 6.13818L7.27608 7.3335H14C14.3682 7.3335 14.6667 7.63197 14.6667 8.00016C14.6667 8.36835 14.3682 8.66683 14 8.66683H7.27608L8.47139 9.86214C8.73174 10.1225 8.73174 10.5445 8.47139 10.8048C8.21105 11.0652 7.78904 11.0652 7.52869 10.8048L5.19535 8.47152C4.935 8.21117 4.935 7.78916 5.19535 7.52881L7.52869 5.19548Z" fill="#191A1C"/>
</svg>
