<svg width="16" height="16" viewBox="0 0 16 16" fill="none" xmlns="http://www.w3.org/2000/svg">
<path d="M1.33337 12.6668V3.3335C1.33337 2.22893 2.2288 1.3335 3.33337 1.3335H10.3334C10.7016 1.3335 11 1.63197 11 2.00016C11 2.36835 10.7016 2.66683 10.3334 2.66683H3.33337C2.96518 2.66683 2.66671 2.96531 2.66671 3.3335V12.6668C2.66671 13.035 2.96518 13.3335 3.33337 13.3335H10.3334C10.7016 13.3335 11 13.632 11 14.0002C11 14.3684 10.7016 14.6668 10.3334 14.6668H3.33337C2.2288 14.6668 1.33337 13.7714 1.33337 12.6668ZM11.1954 5.19548C11.4557 4.93513 11.8777 4.93513 12.1381 5.19548L14.4714 7.52881C14.7317 7.78916 14.7317 8.21117 14.4714 8.47152L12.1381 10.8048C11.8777 11.0652 11.4557 11.0652 11.1954 10.8048C10.935 10.5445 10.935 10.1225 11.1954 9.86214L12.3907 8.66683H5.66671C5.29852 8.66683 5.00004 8.36835 5.00004 8.00016C5.00004 7.63197 5.29852 7.3335 5.66671 7.3335H12.3907L11.1954 6.13818C10.935 5.87783 10.935 5.45582 11.1954 5.19548Z" fill="#191A1C"/>
</svg>
