<svg width="16" height="16" viewBox="0 0 16 16" fill="none" xmlns="http://www.w3.org/2000/svg">
<path d="M10.3334 5.00016C10.3334 3.7115 9.28876 2.66683 8.00009 2.66683C6.71143 2.66683 5.66676 3.7115 5.66676 5.00016C5.66676 6.28883 6.71143 7.3335 8.00009 7.3335C9.28876 7.3335 10.3334 6.28883 10.3334 5.00016ZM8.00009 8.66683C6.78945 8.66683 5.61019 9.20744 4.72731 10.2007C4.09271 10.9146 3.65072 11.819 3.45192 12.8068C3.42552 12.938 3.46248 13.0544 3.55413 13.1519C3.65204 13.256 3.81193 13.3335 4.00009 13.3335H12.0001C12.1883 13.3335 12.3481 13.256 12.4461 13.1519C12.5377 13.0544 12.5747 12.938 12.5483 12.8068C12.3495 11.819 11.9075 10.9146 11.2729 10.2007C10.39 9.20744 9.21073 8.66683 8.00009 8.66683ZM11.6668 5.00016C11.6668 6.14936 11.1374 7.17423 10.31 7.84652C11.0404 8.18477 11.7076 8.68234 12.2696 9.31462C13.0705 10.2156 13.6131 11.3389 13.8556 12.5438C14.1023 13.77 13.0587 14.6668 12.0001 14.6668H4.00009C2.94149 14.6668 1.89787 13.77 2.14462 12.5438C2.38711 11.3389 2.92965 10.2156 3.73056 9.31462C4.29245 8.68249 4.95938 8.18477 5.68955 7.84652C4.86236 7.17422 4.33343 6.14917 4.33343 5.00016C4.33343 2.97512 5.97505 1.3335 8.00009 1.3335C10.0251 1.3335 11.6668 2.97512 11.6668 5.00016Z" fill="white"/>
</svg>
