<svg width="40" height="40" viewBox="0 0 40 40" fill="none" xmlns="http://www.w3.org/2000/svg">
<path d="M24.3727 24.4501L24.4211 24.6047C25.5131 24.9333 27.8903 26.5857 28.1802 27.6874C28.3928 28.4894 27.813 29.2239 26.9819 29.1176C26.3248 29.0306 25.9866 28.1705 25.5034 27.726C22.8749 25.3005 17.2121 25.3391 14.5449 27.6874C13.8975 28.2575 13.366 29.707 12.2547 28.9243C11.4236 28.3348 11.8488 27.4844 12.3609 26.8563C13.192 25.8513 14.429 25.0492 15.6369 24.595C15.7239 24.4694 15.0667 24.0635 14.9604 23.9572C8.50518 18.0045 15.7239 7.75143 23.4547 11.6942C28.4121 14.226 28.9629 21.2804 24.3824 24.4404L24.3727 24.4501ZM19.309 13.0857C16.8545 13.337 14.8251 15.5596 14.6512 18.0045C14.3226 22.614 19.7536 25.4841 23.3484 22.556C27.5134 19.1738 24.74 12.5252 19.2994 13.0857H19.309Z" fill="#191A1B"/>
<path d="M4.1759 9.03669C3.99229 9.96439 2.29151 10.0417 2.07891 9.01736C2.18521 7.3359 1.87599 5.33554 2.05959 3.68307C2.14657 2.90032 2.90032 2.14656 3.68307 2.05959C5.32587 1.87598 7.3359 2.18522 9.01736 2.07892C9.74212 2.27219 9.99337 3.20956 9.55851 3.78937C9.4812 3.89567 9.12364 4.16625 9.03667 4.16625H4.29187L4.1759 4.28221V9.03669Z" fill="#191A1B"/>
<path d="M30.9633 4.17592C30.0356 3.99231 29.9583 2.29152 30.9827 2.07892C32.6641 2.18522 34.6645 1.87598 36.3169 2.05959C37.0997 2.14656 37.8534 2.90032 37.9404 3.68307C38.124 5.32588 37.8148 7.3359 37.9211 9.01736C37.7278 9.74213 36.7904 9.99338 36.2106 9.55852C36.1043 9.48121 35.8338 9.12366 35.8338 9.03669V4.29188L35.7178 4.17592H30.9633Z" fill="#191A1B"/>
<path d="M9.03667 35.8241C9.96437 36.0077 10.0417 37.7085 9.01736 37.9211C7.3359 37.8148 5.33553 38.124 3.68307 37.9404C2.90032 37.8534 2.14657 37.0997 2.05959 36.3169C1.87599 34.6741 2.18521 32.6641 2.07891 30.9826C2.27218 30.2579 3.20955 30.0066 3.78937 30.4415C3.89566 30.5188 4.16624 30.8763 4.16624 30.9633V35.7081L4.2822 35.8241H9.03667Z" fill="#191A1B"/>
<path d="M35.8241 30.9633C36.0077 30.0356 37.7085 29.9583 37.9211 30.9826C37.8148 32.6641 38.124 34.6645 37.9404 36.3169C37.8534 37.0997 37.0997 37.8534 36.3169 37.9404C34.6741 38.124 32.6641 37.8148 30.9827 37.9211C30.2579 37.7278 30.0066 36.7904 30.4415 36.2106C30.5188 36.1043 30.8763 35.8338 30.9633 35.8338H35.7081L35.8241 35.7178V30.9633Z" fill="#191A1B"/>
</svg>
