<svg width="40" height="36" viewBox="0 0 40 36" fill="none" xmlns="http://www.w3.org/2000/svg">
<path d="M25.2425 18.7724C26.0777 19.0963 27.8346 19.7245 28.4202 20.3822C29.0634 21.1184 28.9578 22.2963 28.1609 22.8558C27.0185 23.6509 25.9433 22.5417 24.8968 22.0706C16.8615 18.3895 7.39572 23.6411 6.32049 32.5934C6.23409 33.3296 6.33011 34.3406 6.09971 34.9689C5.5237 36.5394 3.22924 36.245 3.02763 34.5664C2.94123 33.8597 3.07561 32.7112 3.18121 31.9848C3.98763 26.154 8.00053 20.9712 13.3478 18.8509C9.44056 15.9061 7.94291 10.6937 9.96856 6.08999C12.119 1.19177 17.7063 -1.24262 22.6696 0.632253C29.7161 3.28259 31.5882 12.4803 26.1929 17.8595C25.9625 18.0852 25.5209 18.3601 25.3289 18.5858C25.2713 18.6546 25.2329 18.6742 25.2521 18.7822L25.2425 18.7724ZM19.156 3.25314C14.2022 3.27278 10.871 8.48511 12.8006 13.1576C14.9607 18.3895 22.0744 18.9687 25.0505 14.1686C28.0265 9.36856 24.6281 3.2237 19.1656 3.25314H19.156Z" fill="#191A1B"/>
<path d="M28.6026 32.0044L34.1131 23.5135C35.3131 22.0313 37.5884 23.3565 36.8587 25.1724C34.6411 28.3038 32.7498 31.975 30.465 35.0179C29.8506 35.8327 29.2938 36.1664 28.2569 35.7738C26.7593 34.5468 24.5993 33.5652 23.1785 32.3185C21.7576 31.0719 23.1593 28.6768 25.0313 29.6584C25.4921 29.894 28.4202 32.132 28.593 32.0142L28.6026 32.0044Z" fill="#191A1B"/>
</svg>
