<svg width="40" height="40" viewBox="0 0 40 40" fill="none" xmlns="http://www.w3.org/2000/svg">
<path d="M21.0732 2L22.9209 2.22549C25.8142 2.71256 28.5723 3.89416 30.9067 5.66204V3.93926C30.9067 3.6416 31.3033 3.18159 31.5827 3.06434C32.2227 2.80276 32.8355 3.15453 33.0158 3.80396V8.35895C32.7814 8.9723 32.3128 9.02642 31.754 9.1527C30.8436 9.35113 28.9057 9.78408 28.0405 9.80212C26.8507 9.82918 26.5082 8.17856 27.6709 7.74561C28.2027 7.54717 28.9959 7.51109 29.5637 7.42992C29.5727 7.36678 29.5637 7.33972 29.5277 7.2856C29.3744 7.08716 28.2118 6.38362 27.9233 6.22126C13.7635 -1.87851 -2.02774 14.2759 6.41767 28.2386C14.2772 41.2271 34.2957 36.6991 35.8189 21.6632C35.882 21.0498 35.7738 19.7961 36.1073 19.3541C36.6481 18.6505 37.7027 18.9392 37.9911 19.7329C37.9731 20.2019 38.0182 20.671 37.9911 21.14C37.0357 37.078 17.0714 43.924 6.44474 31.8645C-3.39773 20.689 4.14635 2.87492 18.883 2.00902H21.0642L21.0732 2Z" fill="#191A1B"/>
<path d="M25.643 16.8376C26.4451 16.7654 27.2383 16.8556 27.4005 17.7846V27.8417C27.3014 28.4009 26.9409 28.7347 26.382 28.7888H13.6553C13.0965 28.7347 12.736 28.4009 12.6368 27.8417V17.7125C12.8532 16.8285 13.6103 16.7654 14.3944 16.8285V13.4191C14.3944 12.6524 15.0614 11.2363 15.5301 10.6139C17.7654 7.65541 22.263 7.64639 24.4983 10.6139C24.9669 11.2363 25.6339 12.6434 25.6339 13.4191V16.8285L25.643 16.8376ZM23.5338 16.8376V13.5634C23.5338 12.003 21.6771 10.5688 20.199 10.5057C18.5946 10.4335 16.5035 11.8586 16.5035 13.5634V16.8376H23.5338ZM25.2914 18.9482H14.7549V26.6872H25.2914V18.9482Z" fill="#191A1B"/>
<path d="M19.0903 21.7714C19.3787 21.7082 20.5955 21.7082 20.8929 21.7624C22.0646 21.9428 22.0737 23.7197 20.8298 23.873C20.4963 23.9181 19.4688 23.9181 19.1444 23.873C18.0087 23.6926 17.9726 22.0059 19.0813 21.7804L19.0903 21.7714Z" fill="#191A1B"/>
</svg>
