<svg width="24" height="24" viewBox="0 0 24 24" fill="none" xmlns="http://www.w3.org/2000/svg">
<path fill-rule="evenodd" clip-rule="evenodd" d="M9 5.09961C11.4371 5.09961 13.4004 7.06294 13.4004 9.5C13.4004 10.8408 12.8048 12.0368 11.8643 12.8428C13.6743 13.8508 14.9004 15.7825 14.9004 18C14.9004 18.4971 14.4971 18.9004 14 18.9004C13.5029 18.9004 13.0996 18.4971 13.0996 18C13.0996 15.7371 11.2629 13.9004 9 13.9004C6.73706 13.9004 4.90039 15.7371 4.90039 18C4.90039 18.4971 4.49706 18.9004 4 18.9004C3.50294 18.9004 3.09961 18.4971 3.09961 18C3.09961 15.7828 4.32511 13.8509 6.13477 12.8428C5.19454 12.0368 4.59961 10.8406 4.59961 9.5C4.59961 7.06294 6.56294 5.09961 9 5.09961ZM9 6.90039C7.55706 6.90039 6.40039 8.05706 6.40039 9.5C6.40039 10.9429 7.55706 12.0996 9 12.0996C10.4429 12.0996 11.5996 10.9429 11.5996 9.5C11.5996 8.05706 10.4429 6.90039 9 6.90039Z" fill="#191A1B"/>
<path d="M15 5.09961C17.4371 5.09961 19.4004 7.06294 19.4004 9.5C19.4004 10.8408 18.8048 12.0368 17.8643 12.8428C19.6743 13.8508 20.9004 15.7825 20.9004 18C20.9004 18.4971 20.4971 18.9004 20 18.9004C19.5029 18.9004 19.0996 18.4971 19.0996 18C19.0996 15.7371 17.2629 13.9004 15 13.9004C14.5029 13.9004 14.0996 13.4971 14.0996 13C14.0996 12.5029 14.5029 12.0996 15 12.0996C16.4429 12.0996 17.5996 10.9429 17.5996 9.5C17.5996 8.05706 16.4429 6.90039 15 6.90039C14.5029 6.90039 14.0996 6.49706 14.0996 6C14.0996 5.50294 14.5029 5.09961 15 5.09961Z" fill="#191A1B"/>
</svg>
