<svg width="40" height="40" viewBox="0 0 40 40" fill="none" xmlns="http://www.w3.org/2000/svg">
<path d="M19.1747 4.0185C21.1063 3.91105 23.2728 4.27818 25.1 4.94976C25.5524 5.11094 26.8402 5.62134 27.136 5.92579C27.7973 6.59737 27.2839 7.82412 26.4486 7.87785C26.0397 7.90471 23.8993 6.85704 23.1684 6.669C11.718 3.74091 2.4864 16.2771 8.30728 26.8433C14.0847 37.3199 29.5287 35.4037 32.7133 23.8077C33.1744 22.1422 33.0613 20.8528 33.3049 19.2589C33.4702 18.1306 35.3583 18.0232 35.4714 19.8051C36.0805 29.2878 26.8489 37.0334 17.9479 35.8872C-0.576295 33.5053 0.224179 5.08407 19.1921 4.02746L19.1747 4.0185Z" fill="#191A1B"/>
<path d="M33.9227 8.04798C34.9842 7.71667 35.9413 8.81806 35.1843 9.75827L20.0535 24.9897C19.8186 25.0613 19.5401 25.0434 19.2965 24.9897C18.7832 24.8643 16.1033 21.8736 15.4768 21.2557C14.8504 20.6379 11.8746 18.0053 11.6745 17.3695C11.3178 16.2144 12.2923 15.498 13.2929 15.9816L19.6532 22.3661L33.9227 8.04798Z" fill="#191A1B"/>
</svg>
