<svg width="40" height="40" viewBox="0 0 40 40" fill="none" xmlns="http://www.w3.org/2000/svg">
<path d="M2 30.8325V9.1863C2.2524 7.70837 3.32508 6.64498 4.84847 6.51882C15.1426 6.5819 25.4638 6.38364 35.7399 6.61795C37.0199 6.96941 37.8763 8.04181 37.9844 9.35752C37.9304 16.63 38.1016 23.9295 37.8943 31.193C37.5517 32.5448 36.452 33.3919 35.0728 33.5H4.84847C3.42424 33.4099 2.16225 32.2474 2 30.8235V30.8325ZM35.2441 8.06884H4.7403L18.7933 20.9647C19.3432 21.4513 19.9381 21.6766 20.6502 21.3431C25.3106 17.1707 30.043 13.0253 34.6132 8.73571C34.6853 8.67263 35.2802 8.09588 35.2441 8.06884ZM3.55043 30.8325L15.4221 19.9644L3.55043 9.1142V30.8235V30.8325ZM36.443 30.8325V9.12321L24.5714 19.9734L36.443 30.8415V30.8325ZM35.3162 31.959L23.4356 21.0367C23.2643 20.9827 22.3179 21.992 22.1015 22.1632C21.146 22.9202 20.2356 23.2266 19.0277 22.8481C18.0542 22.5417 17.4051 21.5684 16.5849 21.0277L4.66818 31.968H35.3162V31.959Z" fill="#191A1B"/>
</svg>
