<svg width="24" height="24" viewBox="0 0 24 24" fill="none" xmlns="http://www.w3.org/2000/svg">
<path d="M15.3311 8.29456C15.7204 7.9033 16.3535 7.90162 16.7451 8.29065C17.1366 8.67995 17.1381 9.31306 16.749 9.70471L11.7793 14.7047C11.3912 15.0951 10.7603 15.0979 10.3682 14.7115L8.33789 12.7115C7.94504 12.3239 7.94071 11.6907 8.32812 11.2975C8.71572 10.9047 9.34895 10.9005 9.74219 11.2877L11.0615 12.5885L15.3311 8.29456Z" fill="#191A1B"/>
<path fill-rule="evenodd" clip-rule="evenodd" d="M11.4717 2.12464C11.8996 2.04258 12.3379 2.0536 12.7627 2.15979L19.5166 3.84827C20.4182 4.06866 21.0399 4.87318 21.04 5.78967V13.0104C21.0398 18.1742 16.6851 22.3252 11.4453 21.9879C6.62666 21.6704 3.04012 17.4725 3.04004 12.7301V5.77991C3.04009 4.86498 3.65861 4.0616 4.55762 3.83948L11.3174 2.15003C11.3686 2.13722 11.4203 2.12922 11.4717 2.12464ZM12.2773 4.10022C12.1167 4.0601 11.9536 4.06013 11.793 4.10022C11.7657 4.10704 11.7373 4.10846 11.71 4.11292L5.04297 5.77991H5.04004V12.7301C5.04012 16.5076 7.89494 19.7493 11.5762 19.9918C15.6557 20.254 19.0398 17.0259 19.04 13.0104V5.79065L19.0371 5.78967L12.2773 4.10022Z" fill="#191A1B"/>
</svg>
