<svg width="40" height="40" viewBox="0 0 40 40" fill="none" xmlns="http://www.w3.org/2000/svg">
<path d="M35.0569 13.5041C35.1746 13.5041 35.7415 13.7703 35.8806 13.8448C36.5866 14.3025 36.8862 15.0477 36.9397 15.8568C37.1322 18.6459 36.7899 21.6693 36.929 24.4797C36.9825 25.2994 35.8699 26.6088 35.0676 26.6088H32.1899V36.2005C32.1899 37.7122 30.7244 39.49 29.2374 39.82C23.3216 40.1606 17.331 39.9051 11.3938 39.9477C9.62868 39.82 7.82078 37.9464 7.82078 36.1898V26.5982H4.94312C4.82544 26.5982 4.25848 26.332 4.11941 26.2575C3.41337 25.7998 3.11383 25.0546 3.06034 24.2455C2.86779 21.4564 3.21011 18.433 3.07104 15.6226C3.01755 14.8029 4.13011 13.4935 4.93243 13.4935H7.81008V3.90181C7.81008 1.88979 9.77844 0.250372 11.6826 0.122625C17.1491 -0.260616 23.0756 0.399408 28.5955 0.15456C30.3606 0.261016 32.1685 2.15594 32.1685 3.91246V13.5041H35.0569ZM30.842 13.5041V3.91246C30.842 2.77338 29.4085 1.38945 28.2211 1.46397H11.5436C10.4417 1.53849 9.15798 2.83725 9.15798 3.91246V13.5041H30.842ZM5.12499 14.8455C4.60081 14.9945 4.44034 15.3458 4.39755 15.8568C4.1622 18.5501 4.5794 21.5948 4.39755 24.3307C4.44034 24.7352 4.65428 25.1184 5.06079 25.2462L34.6397 25.2888C35.3243 25.2568 35.549 24.7778 35.6025 24.171C35.8271 21.5202 35.4313 18.5501 35.6025 15.8674C35.5597 15.4203 35.3992 15.0158 34.9392 14.8667L5.12499 14.8455ZM30.842 26.6195H9.15798V36.2111C9.15798 37.2863 10.4417 38.5851 11.5436 38.649H28.2211C29.4085 38.7341 30.842 37.3502 30.842 36.2111V26.6195Z" fill="#191A1B"/>
<path d="M8.90124 17.6878C8.95473 17.4323 9.41473 17.2088 9.67147 17.2407C10.4203 17.3578 10.217 18.3479 10.2384 18.8908C10.7091 18.4543 12.0356 17.8582 12.0784 18.9334C12.1105 19.6998 10.9231 19.8063 10.9873 20.0937C11.0301 20.296 12.6882 20.7112 11.9073 21.5948C11.4152 22.1483 10.6984 21.4776 10.2384 21.2222C10.2384 21.7757 10.3882 22.9255 9.5324 22.8829C9.36124 22.8829 8.90124 22.6061 8.90124 22.4251V21.2222C8.41985 21.616 7.10404 22.2761 7.06125 21.1796C7.02916 20.4131 8.21658 20.3066 8.1524 20.0192C8.10961 19.8169 6.4515 19.4018 7.23242 18.5182C7.74591 17.954 8.41985 18.6672 8.90124 18.8908V17.6878Z" fill="#191A1B"/>
<path d="M22.8402 17.6878C22.9044 17.4004 23.3323 17.1981 23.6104 17.2407C24.263 17.3578 24.1881 18.3159 24.1774 18.8056C24.3165 18.9653 25.2579 17.8582 25.8462 18.5182C26.4346 19.1782 25.429 19.7637 24.8942 19.966L24.8407 20.1363C25.4076 20.2854 26.5095 21.0092 25.8034 21.6373C25.1723 22.1909 24.3165 21.137 24.1774 21.3073C24.2202 21.8396 24.2309 22.9042 23.4714 22.8829C23.2681 22.8829 22.8402 22.638 22.8402 22.4251V21.2222C22.3802 21.467 21.4923 22.2335 21.0858 21.5202C20.6793 20.807 21.5137 20.4344 22.0379 20.1576L22.0914 19.9873C21.5351 19.7211 20.7328 19.4231 21.0537 18.6566C21.3746 17.8901 22.4016 18.6566 22.8402 18.9014C22.8937 18.5501 22.7653 18.0285 22.8402 17.6985V17.6878Z" fill="#191A1B"/>
<path d="M17.1598 18.8908C17.6305 18.6566 18.5184 17.8794 18.9142 18.5927C19.31 19.306 18.4863 19.6786 17.9621 19.9553L17.9086 20.1257C18.4649 20.3918 19.2672 20.6899 18.9463 21.4564C18.6254 22.2228 17.5984 21.4564 17.1598 21.2115V22.4145C17.1598 22.6167 16.7319 22.8616 16.5286 22.8722C15.7691 22.8935 15.7798 21.829 15.8226 21.2967C15.6728 21.137 14.817 22.1909 14.1966 21.6267C13.4905 20.9986 14.5817 20.2747 15.1593 20.1257L15.1058 19.9553C14.571 19.7531 13.5761 19.1463 14.1538 18.5075C14.7314 17.8688 15.6835 18.9546 15.8226 18.795C15.7691 18.1988 15.7905 17.0704 16.657 17.2514C16.8282 17.2833 17.1491 17.5069 17.1491 17.6772V18.8801L17.1598 18.8908Z" fill="#191A1B"/>
<path d="M31.0881 18.8908C31.5695 18.4969 32.8853 17.8369 32.9281 18.9334C32.9602 19.6999 31.7727 19.8063 31.8369 20.0937C31.8797 20.296 33.5378 20.7112 32.7569 21.5948C32.2434 22.159 31.5695 21.4457 31.0881 21.2222V22.4251C31.0881 22.5848 30.6281 22.8722 30.4569 22.8829C29.6011 22.9255 29.7509 21.7757 29.7509 21.2222C29.2909 21.4777 28.5741 22.1483 28.082 21.5948C27.4616 20.8922 28.4886 20.3066 29.0876 20.1363L29.0341 19.966C26.9374 19.2527 28.1141 17.443 29.7509 18.8908C29.7723 18.3479 29.569 17.3578 30.3178 17.2407C30.5532 17.2088 31.0881 17.4536 31.0881 17.6878V18.8908Z" fill="#191A1B"/>
<path d="M16.8924 3.39082H22.0486C22.9258 3.84858 22.5407 4.60442 21.6314 4.70023C20.6365 4.79604 18.2831 4.80668 17.3096 4.70023C16.4966 4.60442 16.2291 3.89116 16.9031 3.40146L16.8924 3.39082Z" fill="#191A1B"/>
<path d="M17.224 35.434C18.2937 35.2743 21.503 35.3063 22.6263 35.4127C23.5356 35.5085 23.8565 36.2431 23.0435 36.7328H16.9565C16.2184 36.3495 16.4003 35.5511 17.224 35.434Z" fill="#191A1B"/>
</svg>
