<svg width="24" height="24" viewBox="0 0 24 24" fill="none" xmlns="http://www.w3.org/2000/svg">
<path d="M8.62988 7.5V12.0098L8.72949 11.8896C9.07945 11.5797 9.55986 11.4698 10.0498 11.4697H11.3701L10.2402 12.8604L11.9795 15.0098L13.1904 16.4902H11.3203C11.0703 16.4902 10.8296 16.3803 10.6396 16.1504L9.71973 15.0098L8.62988 13.6797V15.9199C8.62988 16.2299 8.36957 16.4902 8.05957 16.4902H6.71973V8.07031C6.71973 7.76031 6.98004 7.5 7.29004 7.5H8.62988Z" fill="#191A1B"/>
<path d="M15.5801 11.4697V14.3896L15.5898 14.3799C15.5898 14.6598 15.8198 14.8895 16.0996 14.8896H17.46V15.9102C17.4599 16.2201 17.2096 16.4805 16.8896 16.4805H15.4199C14.38 16.4804 13.67 15.7701 13.6699 14.7402V11.4697H15.5801Z" fill="#191A1B"/>
<path d="M15.5898 7.5V9.66992H16.2695C17.2995 9.66992 17.6602 9.2998 17.6602 9.2998L17.7803 9.17969V10.4766C17.778 10.5398 17.7573 10.6745 17.6299 10.8096C17.3899 11.0696 16.9395 11.2002 16.2695 11.2002H10.1797C9.39984 11.2003 8.87012 11.7002 8.87012 11.7002L9.99023 10.3203C10.2702 9.98031 10.6304 9.66992 11.4004 9.66992H13.6797V8.07031C13.6797 7.76031 13.93 7.5 14.25 7.5H15.5898Z" fill="#191A1B"/>
<path fill-rule="evenodd" clip-rule="evenodd" d="M19 2C20.65 2 22 3.35 22 5V19C22 20.65 20.65 22 19 22H5C3.35 22 2 20.65 2 19V5C2 3.35 3.35 2 5 2H19ZM5 4C4.45 4 4 4.45 4 5V19C4 19.55 4.45 20 5 20H19C19.55 20 20 19.55 20 19V5C20 4.45 19.55 4 19 4H5Z" fill="#191A1B"/>
</svg>
