<svg width="40" height="40" viewBox="0 0 40 40" fill="none" xmlns="http://www.w3.org/2000/svg">
<path d="M6.11395 3.51793L33.701 3.5C35.6425 3.71512 36.7804 5.65125 36.9068 7.45291C37.2048 11.7823 36.672 16.4433 36.9068 20.8086C36.7984 22.5206 35.6425 24.5643 33.7733 24.7525C32.2201 24.9049 30.4231 24.645 28.8519 24.7525C27.5154 24.4836 27.5877 22.6461 28.9873 22.5206C30.4863 22.3861 32.175 22.6371 33.692 22.5116C34.3512 22.2069 34.5589 21.4002 34.6582 20.7458V7.51566C34.5679 6.86132 34.279 5.80363 33.4934 5.73192H6.44806C5.76177 5.81259 5.44575 6.87029 5.35545 7.44395V20.7279C5.45478 21.3822 5.66248 22.1889 6.32168 22.4937C7.83875 22.6192 9.52735 22.3772 11.0264 22.5027C12.5254 22.6282 12.4441 24.6001 11.0986 24.7436C9.97887 24.8601 7.36915 24.8511 6.24039 24.7436C4.38921 24.5643 3.23337 22.5475 3.10695 20.8623C2.77284 16.515 3.35077 11.7644 3.10695 7.37224C3.27852 5.63332 4.2718 3.85854 6.11395 3.50896V3.51793Z" fill="#191A1B"/>
<path d="M19.3515 21.4092C25.3385 20.8803 28.9596 27.6568 25.2843 32.3178C25.3114 32.4702 27.2529 34.2181 27.5328 34.5587C28.499 35.7419 27.1806 36.9878 26.1241 36.3066L23.6047 33.8416C23.0267 34.0746 22.4849 34.3794 21.8799 34.5497C16.8863 35.948 12.2628 31.5738 13.4096 26.5632C14.0418 23.8114 16.507 21.6602 19.3425 21.4092H19.3515ZM19.4869 23.6501C13.7618 24.2237 14.4481 33.0259 20.3809 32.5777C26.3137 32.1295 25.5913 23.0405 19.4869 23.6501Z" fill="#191A1B"/>
<path d="M10.8185 16.1743C10.7372 16.1026 10.376 15.7172 10.3218 15.7262C9.75294 16.4253 8.6061 17.4113 7.82951 16.3805C7.14322 15.4662 8.12751 14.6685 8.73252 14.0858C8.13654 13.4763 7.11613 12.813 7.82951 11.8629C8.59707 10.8321 9.75294 11.8181 10.3218 12.5172C10.9088 11.9794 11.4145 11.1727 12.3265 11.5043C12.9496 11.7284 13.1754 12.3648 12.9677 12.9744C12.8142 13.4315 12.2091 13.7273 11.9834 14.1486C12.4529 14.7043 13.1031 15.0001 13.0309 15.8337C12.9586 16.6673 12.0827 17.0348 11.3874 16.6942C11.1526 16.5777 10.9901 16.3267 10.8185 16.1743Z" fill="#191A1B"/>
<path d="M20.3901 16.1743C20.3088 16.1026 19.9476 15.7172 19.8934 15.7262C19.3245 16.4253 18.1777 17.4113 17.4011 16.3805C16.7148 15.4662 17.6991 14.6685 18.3041 14.0858C17.7081 13.4763 16.6877 12.813 17.4011 11.8629C18.1687 10.8321 19.3245 11.8181 19.8934 12.5172C20.4804 11.9794 20.9861 11.1727 21.8982 11.5043C22.5212 11.7284 22.747 12.3648 22.5393 12.9744C22.3858 13.4315 21.7808 13.7273 21.555 14.1486C22.0246 14.7043 22.6747 15.0001 22.6025 15.8337C22.5302 16.6673 21.6543 17.0348 20.959 16.6942C20.7242 16.5777 20.5617 16.3267 20.3901 16.1743Z" fill="#191A1B"/>
<path d="M29.9706 16.1743C29.8893 16.1026 29.528 15.7172 29.4739 15.7262C28.905 16.4253 27.7581 17.4113 26.9815 16.3805C26.2952 15.4662 27.2795 14.6685 27.8845 14.0858C27.2886 13.4763 26.2682 12.813 26.9815 11.8629C27.7491 10.8321 28.905 11.8181 29.4739 12.5172C30.0608 11.9794 30.5665 11.1727 31.4786 11.5043C32.1017 11.7284 32.3274 12.3648 32.1197 12.9744C31.9662 13.4315 31.3612 13.7273 31.1354 14.1486C31.605 14.7043 32.2551 15.0001 32.1829 15.8337C32.1107 16.6673 31.2347 17.0348 30.5394 16.6942C30.3046 16.5777 30.1421 16.3267 29.9706 16.1743Z" fill="#191A1B"/>
</svg>
