<svg preserveAspectRatio="none" width="100%" height="100%" overflow="visible" style="display: block;" viewBox="0 0 7.99995 10.6667" fill="none" xmlns="http://www.w3.org/2000/svg">
<g id="Vector">
<path d="M0.666667 0C1.03486 0 1.33333 0.298477 1.33333 0.666667V10C1.33333 10.3682 1.03486 10.6667 0.666667 10.6667C0.298477 10.6667 0 10.3682 0 10V0.666667C0 0.298477 0.298477 0 0.666667 0Z" fill="var(--fill-0, #6F737B)"/>
<path d="M6.86198 0.195313C7.12232 -0.0650267 7.54434 -0.0650059 7.80469 0.195313C8.06504 0.455662 8.06504 0.877671 7.80469 1.13802L3.60938 5.33333L7.80469 9.52865C8.06504 9.789 8.06504 10.211 7.80469 10.4714C7.54434 10.7317 7.12233 10.7317 6.86198 10.4714L2.19531 5.80469C1.93499 5.54434 1.93497 5.12232 2.19531 4.86198L6.86198 0.195313Z" fill="var(--fill-0, #6F737B)"/>
</g>
</svg>
